<?xml version="1.0" encoding="UTF-8" standalone="no"?>
<!-- Created with Inkscape (http://www.inkscape.org/) -->

<svg
   xmlns:dc="http://purl.org/dc/elements/1.1/"
   xmlns:cc="http://creativecommons.org/ns#"
   xmlns:rdf="http://www.w3.org/1999/02/22-rdf-syntax-ns#"
   xmlns:svg="http://www.w3.org/2000/svg"
   xmlns="http://www.w3.org/2000/svg"
   xmlns:sodipodi="http://sodipodi.sourceforge.net/DTD/sodipodi-0.dtd"
   xmlns:inkscape="http://www.inkscape.org/namespaces/inkscape"
   width="79.022224mm"
   height="79.022224mm"
   viewBox="0 0 280.00001 280.00001"
   id="svg7411"
   version="1.1"
   inkscape:version="0.91 r13725"
   sodipodi:docname="el_survey.svg">
  <defs
     id="defs7413">
    <linearGradient
       y2="588.19659"
       x2="589.79382"
       y1="408.39261"
       x1="409.98969"
       gradientUnits="userSpaceOnUse"
       id="SVGID_8_">
      <stop
         id="stop106"
         style="stop-color:#389AE1"
         offset="0" />
      <stop
         id="stop108"
         style="stop-color:#8DD8F8"
         offset="1" />
    </linearGradient>
  </defs>
  <sodipodi:namedview
     id="base"
     pagecolor="#ffffff"
     bordercolor="#666666"
     borderopacity="1.0"
     inkscape:pageopacity="0.0"
     inkscape:pageshadow="2"
     inkscape:zoom="0.35"
     inkscape:cx="417.85714"
     inkscape:cy="-288.57142"
     inkscape:document-units="px"
     inkscape:current-layer="layer1"
     showgrid="false"
     fit-margin-top="0"
     fit-margin-left="0"
     fit-margin-right="0"
     fit-margin-bottom="0"
     inkscape:window-width="1536"
     inkscape:window-height="841"
     inkscape:window-x="-8"
     inkscape:window-y="-8"
     inkscape:window-maximized="1" />
  <metadata
     id="metadata7416">
    <rdf:RDF>
      <cc:Work
         rdf:about="">
        <dc:format>image/svg+xml</dc:format>
        <dc:type
           rdf:resource="http://purl.org/dc/dcmitype/StillImage" />
        <dc:title></dc:title>
      </cc:Work>
    </rdf:RDF>
  </metadata>
  <g
     inkscape:label="Layer 1"
     inkscape:groupmode="layer"
     id="layer1"
     transform="translate(42.85714,36.20922)">
    <g
       transform="translate(-393.60714,-385.45922)"
       id="g716">
      <g
         id="g6506">
        <circle
           cx="490.75"
           cy="489.25"
           r="140"
           id="circle31"
           style="fill:#8dd8f8" />
        <path
           d="M 628.757,465.638 567.659,404.54 c -0.91,-0.92 -2.174,-1.491 -3.57,-1.491 l -32.661,0 c -1.153,-4.186 -4.978,-7.265 -9.531,-7.265 l -19.168,0 c 0,-6.943 -5.628,-12.571 -12.571,-12.571 -6.943,0 -12.571,5.628 -12.571,12.571 l -17.983,0 c -4.553,0 -8.378,3.079 -9.531,7.265 l -32.661,0 c -2.771,0 -5.019,2.247 -5.019,5.019 l 0,162.198 c 0,1.212 0.43,2.325 1.146,3.192 l 53.832,53.837 c 7.604,1.278 15.411,1.954 23.378,1.954 77.32,0 140.001,-62.68 140.001,-140 0,-8.047 -0.688,-15.934 -1.993,-23.611 z"
           id="path110"
           style="fill:url(#SVGID_8_)"
           inkscape:connector-curvature="0" />
        <path
           d="m 569.108,570.266 c 0,2.771 -2.247,5.019 -5.019,5.019 l -146.678,0 c -2.771,0 -5.019,-2.247 -5.019,-5.019 l 0,-162.198 c 0,-2.771 2.247,-5.019 5.019,-5.019 l 146.679,0 c 2.771,0 5.019,2.247 5.019,5.019 l 0,162.198 z"
           id="path718"
           inkscape:connector-curvature="0"
           style="fill:#44475a" />
        <path
           d="m 424.985,565.285 c -1.432,0 -2.593,-1.161 -2.593,-2.593 l 0,-147.05 c 0,-1.432 1.161,-2.593 2.593,-2.593 l 131.53,0 c 1.432,0 2.593,1.161 2.593,2.593 l 0,147.05 c 0,1.432 -1.161,2.593 -2.593,2.593 l -131.53,0 z"
           id="path720"
           inkscape:connector-curvature="0"
           style="fill:#ffffff" />
        <g
           id="g722">
          <path
             d="m 449.707,416.367 c 0,1.828 1.482,3.311 3.311,3.311 l 75.464,0 c 1.828,0 3.311,-1.482 3.311,-3.311 l 0,-3.317 -82.086,0 0,3.317 z"
             id="path724"
             inkscape:connector-curvature="0"
             style="fill:#ffca08" />
        </g>
        <g
           id="g726">
          <path
             d="m 542.473,483.812 c 0,1.157 -0.938,2.095 -2.095,2.095 l -71.81,0 c -1.157,0 -2.095,-0.938 -2.095,-2.095 l 0,-4.236 c 0,-1.157 0.938,-2.095 2.095,-2.095 l 71.81,0 c 1.157,0 2.095,0.938 2.095,2.095 l 0,4.236 z"
             id="path728"
             inkscape:connector-curvature="0"
             style="fill:#bfc4c9" />
          <path
             d="m 438.623,491.928 c -2.534,0 -4.596,-2.062 -4.596,-4.596 l 0,-11.278 c 0,-2.534 2.062,-4.595 4.596,-4.595 l 13.434,0 c 2.534,0 4.596,2.062 4.596,4.595 l 0,11.278 c 0,2.534 -2.062,4.596 -4.596,4.596 l -13.434,0 z"
             id="path730"
             inkscape:connector-curvature="0"
             style="fill:#f0f3f3" />
        </g>
        <g
           id="g732">
          <path
             d="m 525.471,514.362 c 0,1.157 -0.938,2.095 -2.095,2.095 l -54.808,0 c -1.157,0 -2.095,-0.938 -2.095,-2.095 l 0,-4.236 c 0,-1.157 0.938,-2.095 2.095,-2.095 l 54.808,0 c 1.157,0 2.095,0.938 2.095,2.095 l 0,4.236 z"
             id="path734"
             inkscape:connector-curvature="0"
             style="fill:#bfc4c9" />
          <path
             d="m 438.623,522.479 c -2.534,0 -4.596,-2.062 -4.596,-4.595 l 0,-11.278 c 0,-2.534 2.062,-4.596 4.596,-4.596 l 13.434,0 c 2.534,0 4.596,2.062 4.596,4.596 l 0,11.278 c 0,2.534 -2.062,4.595 -4.596,4.595 l -13.434,0 z"
             id="path736"
             inkscape:connector-curvature="0"
             style="fill:#f0f3f3" />
        </g>
        <g
           id="g738">
          <g
             id="g740">
            <path
               d="m 542.473,453.261 c 0,1.157 -0.938,2.095 -2.095,2.095 l -71.81,0 c -1.157,0 -2.095,-0.938 -2.095,-2.095 l 0,-4.236 c 0,-1.157 0.938,-2.095 2.095,-2.095 l 71.81,0 c 1.157,0 2.095,0.938 2.095,2.095 l 0,4.236 z"
               id="path742"
               inkscape:connector-curvature="0"
               style="fill:#bfc4c9" />
            <path
               d="m 438.623,461.377 c -2.534,0 -4.596,-2.062 -4.596,-4.596 l 0,-11.278 c 0,-2.534 2.062,-4.595 4.596,-4.595 l 13.434,0 c 2.534,0 4.596,2.061 4.596,4.595 l 0,11.278 c 0,2.534 -2.062,4.596 -4.596,4.596 l -13.434,0 z"
               id="path744"
               inkscape:connector-curvature="0"
               style="fill:#f0f3f3" />
          </g>
          <path
             d="m 458.046,436.933 c -0.107,-0.101 -0.25,-0.155 -0.397,-0.151 -0.147,0.004 -0.287,0.067 -0.388,0.174 l -1.517,1.61 -10.018,10.652 c -0.103,0.109 -0.246,0.172 -0.396,0.174 -0.15,0.002 -0.294,-0.056 -0.401,-0.163 l -3.565,-3.564 -1.563,-1.563 c -0.104,-0.104 -0.246,-0.163 -0.393,-0.163 -0.147,0 -0.288,0.059 -0.393,0.162 l -3.127,3.127 c -0.216,0.216 -0.216,0.568 0,0.784 l 1.563,1.564 5.982,5.982 1.61,1.609 c 0.106,0.105 0.25,0.164 0.4,0.162 0.15,-0.002 0.292,-0.065 0.396,-0.174 l 1.563,-1.655 12.366,-13.139 1.518,-1.61 c 0.21,-0.223 0.2,-0.574 -0.023,-0.784 l -3.217,-3.034 z"
             id="path746"
             inkscape:connector-curvature="0"
             style="fill:#f35b74" />
        </g>
        <path
           d="m 532.973,536.332 c -1.557,0 -2.818,1.262 -2.818,2.818 l 0,26.135 28.953,-28.953 -26.135,0 z"
           id="path748"
           inkscape:connector-curvature="0"
           style="fill:#bfc4c9" />
        <path
           d="m 530.155,565.285 26.36,0 c 1.432,0 2.593,-1.161 2.593,-2.593 l 0,-26.36 -28.953,28.953 z"
           id="path750"
           inkscape:connector-curvature="0"
           style="fill:#f0f3f3" />
        <path
           d="m 521.897,395.785 -19.168,0 c 0,-6.943 -5.628,-12.571 -12.571,-12.571 -6.943,0 -12.571,5.628 -12.571,12.571 l -17.983,0 c -5.465,0 -9.896,4.431 -9.896,9.896 l 0,7.369 82.086,0 0,-7.369 c -10e-4,-5.466 -4.431,-9.896 -9.897,-9.896 z m -31.739,6.257 c -3.456,0 -6.258,-2.801 -6.258,-6.257 0,-3.455 2.802,-6.257 6.258,-6.257 3.456,0 6.258,2.802 6.258,6.257 0,3.456 -2.802,6.257 -6.258,6.257 z"
           id="path752"
           inkscape:connector-curvature="0"
           style="fill:#ffed33" />
      </g>
    </g>
  </g>
</svg>
